<?xml version="1.0" encoding="utf-8"?>
<!-- Generator: Adobe Illustrator 21.1.0, SVG Export Plug-In . SVG Version: 6.00 Build 0)  -->
<svg version="1.1" id="Capa_1" xmlns="http://www.w3.org/2000/svg" xmlns:xlink="http://www.w3.org/1999/xlink" x="0px" y="0px"
	 viewBox="0 0 480 480" style="enable-background:new 0 0 480 480;" xml:space="preserve">
<style type="text/css">
	.st0{fill:#454545;}
</style>
<g>
	<g>
		<path class="st0" d="M400,312c-41.4,0-75.6,31.6-79.6,72H248V192h72.4c4,40.4,38.2,72,79.6,72c44.1,0,80-35.9,80-80
			s-35.9-80-80-80c-41.4,0-75.6,31.6-79.6,72H248V0h-16v88h-72.4c-4-40.4-38.2-72-79.6-72C35.9,16,0,51.9,0,96s35.9,80,80,80
			c41.4,0,75.6-31.6,79.6-72H232v184h-72.4c-4-40.4-38.2-72-79.6-72c-44.1,0-80,35.9-80,80s35.9,80,80,80c41.4,0,75.6-31.6,79.6-72
			H232v176h16v-80h72.4c4,40.4,38.2,72,79.6,72c44.1,0,80-35.9,80-80S444.1,312,400,312z M400,120c35.3,0,64,28.7,64,64
			s-28.7,64-64,64s-64-28.7-64-64S364.7,120,400,120z M80,160c-35.3,0-64-28.7-64-64s28.7-64,64-64s64,28.7,64,64S115.3,160,80,160z
			 M80,360c-35.3,0-64-28.7-64-64s28.7-64,64-64s64,28.7,64,64S115.3,360,80,360z M400,456c-35.3,0-64-28.7-64-64s28.7-64,64-64
			s64,28.7,64,64S435.3,456,400,456z"/>
	</g>
</g>
<g>
	<g>
		<path class="st0" d="M439.2,204.4l-32-64c-2.7-5.4-11.6-5.4-14.3,0l-32,64c-1.2,2.5-1.1,5.4,0.4,7.8c1.5,2.4,4,3.8,6.8,3.8h64
			c2.8,0,5.3-1.4,6.8-3.8C440.3,209.8,440.4,206.9,439.2,204.4z M380.9,200l19.1-38.1l19.1,38.1H380.9z"/>
	</g>
</g>
<g>
	<g>
		<path class="st0" d="M104,64H56c-4.4,0-8,3.6-8,8v48c0,4.4,3.6,8,8,8h48c4.4,0,8-3.6,8-8V72C112,67.6,108.4,64,104,64z M96,112H64
			V80h32V112z"/>
	</g>
</g>
<g>
	<g>
		<path class="st0" d="M117.7,290.3l-32-32c-3.1-3.1-8.2-3.1-11.3,0l-32,32c-3.1,3.1-3.1,8.2,0,11.3l32,32c1.6,1.6,3.6,2.3,5.7,2.3
			s4.1-0.8,5.7-2.3l32-32C120.8,298.5,120.8,293.5,117.7,290.3z M80,316.7L59.3,296L80,275.3l20.7,20.7L80,316.7z"/>
	</g>
</g>
<g>
	<g>
		<path class="st0" d="M400,352c-22.1,0-40,17.9-40,40s17.9,40,40,40s40-17.9,40-40S422.1,352,400,352z M400,416
			c-13.2,0-24-10.8-24-24s10.8-24,24-24s24,10.8,24,24S413.2,416,400,416z"/>
	</g>
</g>
</svg>
