<?xml version="1.0" encoding="utf-8"?>
<!-- Generator: Adobe Illustrator 21.1.0, SVG Export Plug-In . SVG Version: 6.00 Build 0)  -->
<svg version="1.1" id="Capa_1" xmlns="http://www.w3.org/2000/svg" xmlns:xlink="http://www.w3.org/1999/xlink" x="0px" y="0px"
	 viewBox="0 0 480.2 480.2" style="enable-background:new 0 0 480.2 480.2;" xml:space="preserve">
<style type="text/css">
	.st0{fill:#454545;}
</style>
<g>
	<g>
		<path class="st0" d="M184.2,256.2c-35.3,0-64,28.7-64,64c0,35.3,28.7,64,64,64s64-28.7,64-64S219.5,256.2,184.2,256.2z
			 M192.2,272.9c20.1,3.4,35.8,19.2,39.3,39.3h-39.3V272.9z M152.1,284.5c6.8-6.1,15.1-10.1,24.1-11.6v44.5l-27.8,34.7
			C130.8,332.4,132.4,302.1,152.1,284.5z M184.2,368.2c-8.2,0-16.2-2.1-23.3-6.1l27.1-33.9h43.4
			C227.5,351.2,207.6,368.1,184.2,368.2z"/>
	</g>
</g>
<g>
	<g>
		<rect x="120.2" y="400.2" class="st0" width="16" height="16"/>
	</g>
</g>
<g>
	<g>
		<rect x="152.2" y="400.2" class="st0" width="96" height="16"/>
	</g>
</g>
<g>
	<g>
		<rect x="120.2" y="432.2" class="st0" width="128" height="16"/>
	</g>
</g>
<g>
	<g>
		<rect x="296.2" y="400.2" class="st0" width="16" height="16"/>
	</g>
</g>
<g>
	<g>
		<rect x="328.2" y="400.2" class="st0" width="96" height="16"/>
	</g>
</g>
<g>
	<g>
		<rect x="296.2" y="432.2" class="st0" width="128" height="16"/>
	</g>
</g>
<g>
	<g>
		<rect x="312.2" y="80.2" class="st0" width="16" height="16"/>
	</g>
</g>
<g>
	<g>
		<rect x="344.2" y="80.2" class="st0" width="80" height="16"/>
	</g>
</g>
<g>
	<g>
		<rect x="312.2" y="112.2" class="st0" width="112" height="16"/>
	</g>
</g>
<g>
	<g>
		<rect x="312.2" y="168.2" class="st0" width="16" height="16"/>
	</g>
</g>
<g>
	<g>
		<rect x="344.2" y="168.2" class="st0" width="80" height="16"/>
	</g>
</g>
<g>
	<g>
		<rect x="312.2" y="200.2" class="st0" width="112" height="16"/>
	</g>
</g>
<g>
	<g>
		<path class="st0" d="M408.2,304.2h-24v-40c0-4.4-3.6-8-8-8h-32c-4.4,0-8,3.6-8,8v24h-24c-4.4,0-8,3.6-8,8v80c0,4.4,3.6,8,8,8h96
			c4.4,0,8-3.6,8-8v-64C416.2,307.8,412.6,304.2,408.2,304.2z M336.2,368.2h-16v-64h16V368.2z M368.2,368.2h-16v-96h16V368.2z
			 M400.2,368.2h-16v-48h16V368.2z"/>
	</g>
</g>
<g>
	<g>
		<path class="st0" d="M288.2,72.2h-96c-4.4,0-8,3.6-8,8v48c0,4.4,3.6,8,8,8h96c4.4,0,8-3.6,8-8v-48
			C296.2,75.8,292.6,72.2,288.2,72.2z M280.2,120.2h-80v-32h80V120.2z"/>
	</g>
</g>
<g>
	<g>
		<path class="st0" d="M288.2,160.2h-96c-4.4,0-8,3.6-8,8v48c0,4.4,3.6,8,8,8h96c4.4,0,8-3.6,8-8v-48
			C296.2,163.8,292.6,160.2,288.2,160.2z M280.2,208.2h-80v-32h80V208.2z"/>
	</g>
</g>
<g>
	<g>
		<path class="st0" d="M456.2,32.2H148C126-0.9,81.3-10,48.2,12C15.1,34,6,78.7,28,111.8c5.3,8,12.1,14.8,20.1,20.1v108.2
			c0,1.8,0.6,3.6,1.8,5L80.2,283v189.2c0,4.4,3.6,8,8,8h368c4.4,0,8-3.6,8-8v-432C464.2,35.8,460.6,32.2,456.2,32.2z M60.2,120.6
			c-26.8-15.5-35.9-49.8-20.4-76.5c10-17.3,28.4-27.9,48.4-27.9c30.9,0,56,25.2,55.9,56.1c0,19.9-10.7,38.4-27.9,48.4
			c-2.5,1.4-4,4.1-4,6.9v16.6h-16V99.5l21.7-21.7l-11.3-11.3L88.2,84.9L69.8,66.5L58.5,77.8l21.7,21.7v44.7h-16v-16.6
			C64.2,124.7,62.6,122.1,60.2,120.6z M64.2,176.2v-16h48v16H64.2z M112.2,192.2v40h-16v-40H112.2z M64.2,192.2h16v40h-16V192.2z
			 M72.8,248.2h30.7l-15.4,19.2L72.8,248.2z M448.2,464.2h-352V283l30.2-37.8c1.1-1.4,1.8-3.2,1.8-5V132
			c19.9-13.4,31.9-35.8,32-59.8c0-8.2-1.4-16.3-4.2-24h292.2L448.2,464.2L448.2,464.2z"/>
	</g>
</g>
</svg>
