<?xml version="1.0" encoding="utf-8"?>
<!-- Generator: Adobe Illustrator 21.1.0, SVG Export Plug-In . SVG Version: 6.00 Build 0)  -->
<svg version="1.1" id="Capa_1" xmlns="http://www.w3.org/2000/svg" xmlns:xlink="http://www.w3.org/1999/xlink" x="0px" y="0px"
	 viewBox="0 0 512 512" style="enable-background:new 0 0 512 512;" xml:space="preserve">
<style type="text/css">
	.st0{fill:#454545;}
</style>
<g>
	<g>
		<path class="st0" d="M441.8,87.5c-0.1-0.1-0.1-0.1-0.2-0.2c0,0,0,0,0-0.1C395.6,31.8,328,0,256,0C184,0,116.4,31.8,70.4,87.2
			c0,0,0,0.1-0.1,0.1c-0.1,0.1-0.1,0.1-0.2,0.2c-35.6,43-55.3,97.6-55.3,153.6c0,55.2,17.9,106.7,51.7,149.2v81.5
			c0,22.2,18.1,40.3,40.3,40.3H405c22.2,0,40.3-18.1,40.3-40.3v-81.5c33.8-42.5,51.7-94,51.7-149.2
			C497.1,185.1,477.4,130.5,441.8,87.5z M417.3,90c-21.1,8.2-45.2,14.9-70.9,19.5c-10.3-36.5-24.6-65.2-41.4-84
			C347.8,35.2,386.9,57.5,417.3,90z M168.9,231c0.6-34.7,4.6-68.5,11.6-98.8c24.4,3.4,49.7,5.2,75.5,5.2c25.8,0,51.1-1.7,75.5-5.2
			c7,30.3,11,64,11.6,98.8H168.9z M343.1,251.1c-0.6,32.6-4.2,64.6-10.4,93.4H179.3c-6.2-28.8-9.8-60.8-10.4-93.4H343.1z M256,20.1
			c17.2,0,31.4,14.4,40.2,26.4c11.9,16.2,22.2,39,30.2,66.2c-22.7,3.1-46.4,4.7-70.4,4.7c-24,0-47.7-1.6-70.4-4.7
			c7.9-27.2,18.2-49.9,30.2-66.2C224.6,34.4,238.8,20.1,256,20.1z M207,25.6c-16.7,18.8-31,47.4-41.4,84
			c-25.7-4.6-49.8-11.2-70.9-19.5C125.1,57.5,164.2,35.2,207,25.6z M81,106.1c23.4,9.8,50.6,17.6,79.6,22.9
			c-7.1,31.4-11.2,66.2-11.8,102H35.3C37.3,185.7,53.3,142,81,106.1z M72.4,364.2c-22.7-33.4-35.3-72-37.1-113.1h113.6
			c0.6,32.5,4,64.4,10,93.4H107C92.3,344.5,79.4,352.4,72.4,364.2z M425.3,386.1c0,0.5,0,0.9,0,1.4v84.3c0,11.2-9.1,20.2-20.2,20.2
			H107c-11.2,0-20.2-9.1-20.2-20.2v-84.3c0-0.5,0-0.9,0-1.4v-1.2c0-11.2,9.1-20.2,20.2-20.2h233.7c0,0,0,0,0,0c0,0,0,0,0.1,0H405
			c11.2,0,20.2,9.1,20.2,20.2V386.1z M439.6,364.2c-7.1-11.8-19.9-19.6-34.6-19.6h-51.8c6-29.1,9.4-61,10-93.4h59.5
			c5.5,0,10-4.5,10-10c0-5.5-4.5-10-10-10h-59.5c-0.6-35.8-4.7-70.6-11.8-102c29.1-5.3,56.3-13.1,79.6-22.9
			c29.7,38.5,46,86.1,46,134.9C477,285.9,464.1,328.1,439.6,364.2z"/>
	</g>
</g>
<g>
	<g>
		<path class="st0" d="M380.4,438.3c5.5,0,10-4.5,10-10s-4.5-10-10-10h-25.8v-17h25.8l0,0c5.5,0,10-4.5,10-10s-4.5-10-10-10h-35.8
			c-5.5,0-10,4.5-10,10v74.2c0,5.5,4.5,10,10,10h35.8c5.5,0,10-4.5,10-10s-4.5-10-10-10h-25.8v-17H380.4z"/>
	</g>
</g>
<g>
	<g>
		<path class="st0" d="M170.9,455.3h-25.8v-64.2c0-5.5-4.5-10-10-10s-10,4.5-10,10v74.2c0,5.5,4.5,10,10,10h35.8c5.5,0,10-4.5,10-10
			S176.5,455.3,170.9,455.3z"/>
	</g>
</g>
<g>
	<g>
		<path class="st0" d="M240.7,455.3h-7.9v-54.2h7.9c5.5,0,10-4.5,10-10s-4.5-10-10-10h-35.8c-5.5,0-10,4.5-10,10s4.5,10,10,10h7.9
			v54.2h-7.9c-5.5,0-10,4.5-10,10s4.5,10,10,10h35.8c5.5,0,10-4.5,10-10S246.3,455.3,240.7,455.3z"/>
	</g>
</g>
<g>
	<g>
		<path class="st0" d="M312.9,381.4c-5.4-1.3-10.8,2-12.1,7.4l-8.2,33.8l-8.2-33.8c-1.3-5.4-6.7-8.7-12.1-7.4
			c-5.4,1.3-8.7,6.7-7.4,12.1l17.9,74.2c1.1,4.5,5.1,7.7,9.8,7.7c4.6,0,8.7-3.2,9.8-7.7l17.9-74.2
			C321.6,388.1,318.3,382.7,312.9,381.4z"/>
	</g>
</g>
<g>
	<g>
		<path class="st0" d="M455.8,232.4c-12.9,0-12.9,20.1,0,20.1C468.7,252.5,468.7,232.4,455.8,232.4z"/>
	</g>
</g>
</svg>
