<?xml version="1.0" encoding="utf-8"?>
<!-- Generator: Adobe Illustrator 21.1.0, SVG Export Plug-In . SVG Version: 6.00 Build 0)  -->
<svg version="1.1" id="Layer_1" xmlns="http://www.w3.org/2000/svg" xmlns:xlink="http://www.w3.org/1999/xlink" x="0px" y="0px"
	 viewBox="0 0 238.1 238.1" style="enable-background:new 0 0 238.1 238.1;" xml:space="preserve">
<style type="text/css">
	.st0{fill:#454545;}
</style>
<g>
	<path class="st0" d="M93.9,85.7l18,15.4l19.3,47.9c0.8,1.9,2.4,3.4,4.4,4.1l93.4,29.5c0.7,0.2,1.4,0.3,2.1,0.3c1.8,0,3.6-0.7,5-2.1
		c1.8-1.8,2.5-4.6,1.7-7.1l-29.5-93.4c-0.6-2-2.1-3.6-4.1-4.4l-47.7-19.2L141,38.5c-1.3-1.5-3.1-2.4-5-2.4c-1.9-0.1-3.8,0.7-5.2,2
		L93.5,75.4c-1.4,1.4-2.1,3.3-2,5.2C91.5,82.6,92.4,84.4,93.9,85.7L93.9,85.7z M215.8,150.6l-47-47c-2.7-2.7-7.2-2.7-9.9,0
		c-2.7,2.7-2.7,7.2,0,9.9l47,47l-63-19.9L126,98.7l27.9-27.9l42,16.9L215.8,150.6L215.8,150.6z M135.2,53.4l7.5,8.8l-25.3,25.3
		l-8.8-7.5C108.7,79.9,135.2,53.4,135.2,53.4z"/>
	<path class="st0" d="M231.1,188H7c-3.9,0-7,3.1-7,7s3.1,7,7,7h224.1c3.9,0,7-3.1,7-7S235,188,231.1,188z"/>
</g>
</svg>
