<?xml version="1.0" encoding="utf-8"?>
<!-- Generator: Adobe Illustrator 21.1.0, SVG Export Plug-In . SVG Version: 6.00 Build 0)  -->
<svg version="1.1" id="Capa_1" xmlns="http://www.w3.org/2000/svg" xmlns:xlink="http://www.w3.org/1999/xlink" x="0px" y="0px"
	 viewBox="0 0 60 60" style="enable-background:new 0 0 60 60;" xml:space="preserve">
<style type="text/css">
	.st0{fill:#454545;}
</style>
<path class="st0" d="M57.5,21.5H55v-9H26.5l-5-7H2.7C1.2,5.5,0,6.7,0,8.2v43.7h0c0,0.6,0.2,1.1,0.5,1.6c0.5,0.6,1.2,1,2,1h44.8
	c1.2,0,2.2-0.8,2.5-1.8l10.2-28v-0.2C60,22.8,58.9,21.5,57.5,21.5z M53,14.5v7h-8v-3c0-0.6-0.4-1-1-1s-1,0.4-1,1v3h-5v-3
	c0-0.6-0.4-1-1-1s-1,0.4-1,1v3h-5v-3c0-0.6-0.4-1-1-1s-1,0.4-1,1v3h-5v-3c0-0.6-0.4-1-1-1s-1,0.4-1,1v3h-5v-3c0-0.6-0.4-1-1-1
	s-1,0.4-1,1v3h-2.3c-0.1,0-0.3,0-0.4,0c-1,0.2-1.8,0.9-2,1.8L10,24.2L5,37.8V20.5h6v-6h16.9H53z M6.4,18.5L9,15.9v2.6H6.4z M2,8.2
	c0-0.4,0.3-0.7,0.7-0.7h17.8l3.6,5H9.6L3,19.1v24.1l-1,2.7V8.2z M47.9,52.1c-0.1,0.2-0.3,0.4-0.5,0.4H2.6c-0.2,0-0.4-0.1-0.4-0.2
	C2.1,52.2,2,52,2,51.9l1-2.8v0L12.2,24l0-0.1c0.1-0.2,0.3-0.4,0.5-0.4H55h2.5c0.4,0,0.5,0.5,0.5,0.8L47.9,52.1z"/>
</svg>
