<?xml version="1.0" encoding="utf-8"?>
<!-- Generator: Adobe Illustrator 21.1.0, SVG Export Plug-In . SVG Version: 6.00 Build 0)  -->
<svg version="1.1" id="Capa_1" xmlns="http://www.w3.org/2000/svg" xmlns:xlink="http://www.w3.org/1999/xlink" x="0px" y="0px"
	 viewBox="0 0 512 512" style="enable-background:new 0 0 512 512;" xml:space="preserve">
<style type="text/css">
	.st0{fill:#454545;}
</style>
<path class="st0" d="M308.6,340.5l-9.3,74.2c-1.9,15-14.6,26.3-29.8,26.3h-27c-15.1,0-27.9-11.3-29.8-26.3l-9.3-74.2
	c-4-31.6,20.7-59.5,52.6-59.5l0,0c-24.8,0-45-20.2-45-45s20.2-45,45-45s45,20.2,45,45s-20.2,45-45,45l0,0
	C287.9,281,312.5,308.9,308.6,340.5z M256,161c-46.9,0-85,38.1-85,85c0,16.9,5,32.6,13.5,45.9c-6.1,10.4-9.9,22.1-11.1,34.1
	C153.4,305.2,141,277,141,246c0-63.4,51.6-115,115-115s115,51.6,115,115c0,31-12.4,59.2-32.4,80c-1.2-12-4.9-23.7-11.1-34.1
	c8.5-13.2,13.5-29,13.5-45.9C341,199.1,302.9,161,256,161z M330.8,404.2l4.6-36.9C374.9,341.3,401,296.6,401,246
	c0-80-65-145-145-145s-145,65-145,145c0,50.6,26.1,95.3,65.5,121.2l4.6,36.9C122,376.1,81,315.7,81,246c0-96.5,78.5-175,175-175
	s175,78.5,175,175C431,315.7,390,376.1,330.8,404.2z"/>
<g>
	<path class="st0" d="M256,281L256,281v160h13.5c15.1,0,27.9-11.3,29.8-26.3l9.3-74.2C312.5,308.9,287.9,281,256,281z"/>
	<path class="st0" d="M301,236c0-24.8-20.2-45-45-45v90C280.8,281,301,260.8,301,236z"/>
	<path class="st0" d="M256,71v30c80,0,145,65,145,145c0,50.6-26.1,95.3-65.5,121.2l-4.6,36.9C390,376.1,431,315.7,431,246
		C431,149.5,352.5,71,256,71z"/>
	<path class="st0" d="M338.6,326c20.1-20.7,32.4-48.9,32.4-80c0-63.4-51.6-115-115-115v30c46.9,0,85,38.1,85,85
		c0,16.9-5,32.6-13.5,45.9C333.6,302.3,337.4,313.9,338.6,326z"/>
</g>
</svg>
