<?xml version="1.0" encoding="utf-8"?>
<!-- Generator: Adobe Illustrator 21.1.0, SVG Export Plug-In . SVG Version: 6.00 Build 0)  -->
<svg version="1.1" id="Capa_1" xmlns="http://www.w3.org/2000/svg" xmlns:xlink="http://www.w3.org/1999/xlink" x="0px" y="0px"
	 viewBox="0 0 512 512" style="enable-background:new 0 0 512 512;" xml:space="preserve">
<style type="text/css">
	.st0{fill:#454545;}
</style>
<g>
	<g>
		<path class="st0" d="M505.4,34.8c-1.3-1.5-3.1-2.5-5.1-2.7l-111.4-9.5l-2-16.1c-0.5-4.1-4.3-7.1-8.4-6.5l-103.4,13
			c-0.4-0.1-0.8-0.2-1.3-0.2L131.7,0.7c-4.1-0.4-7.8,2.8-8.2,6.9l-2.1,24.8l-110,13.8c-4.1,0.5-7.1,4.3-6.5,8.4L61,501.4
			c0.3,2-0.2,4,0.7,6c1.2,2.8,3.9,4.6,6.9,4.6h369.9c4.2,0,7.5-3.4,7.5-7.5v-9.8l14.6,1.2c4.1,0.4,7.8-2.8,8.2-6.9l38.3-448.7
			C507.3,38.3,506.7,36.4,505.4,34.8z M61.1,381L20.8,60.2l40.3-5.1V381z M138,16.4l66,5.6l-67.2,8.4L138,16.4z M372.8,16l3.9,30.6
			H129.1L372.8,16z M454.5,480.2l-8.4-0.7V259.2c0-4.2-3.4-7.5-7.5-7.5s-7.5,3.4-7.5,7.5v237.7H76.2V61.7H431V224
			c0,4.2,3.4,7.5,7.5,7.5s7.5-3.4,7.5-7.5V54.1c0-4.2-3.4-7.5-7.5-7.5h-46.7l-1.1-8.6l100.7,8.6L454.5,480.2z"/>
	</g>
</g>
<g>
	<g>
		<path class="st0" d="M398.3,86.8h-40.2c-2.5,0-4.9,1.3-6.3,3.4l-17.1,25.6c-18.4-13.2-40.9-20.9-65.1-20.9c-4.2,0-7.5,3.4-7.5,7.5
			v104.5c0,4.2,3.4,7.5,7.5,7.5h104.5c4.2,0,7.5-3.4,7.5-7.5c0-32.1-13.6-61.1-35.3-81.5l15.7-23.5h36.2c4.2,0,7.5-3.4,7.5-7.5
			S402.5,86.8,398.3,86.8z M366.4,199.4h-89.2v-89.2c18.3,1.4,35.1,7.9,49.2,18.1l-6.7,10.1c-2.1,3.1-1.5,7.5,1.4,9.9
			c3.4,2.9,8.7,2.1,11.1-1.6l5.8-8.6C354,154.1,364.5,175.5,366.4,199.4z"/>
	</g>
</g>
<g>
	<g>
		<path class="st0" d="M398.3,336.1h-68.2l-12-19.2c19.5-20.2,31.5-47.6,31.5-77.8c0-4.2-3.4-7.5-7.5-7.5h-97v-97
			c0-4.2-3.4-7.5-7.5-7.5c-61.8,0-112.1,50.3-112.1,112.1s50.3,112.1,112.1,112.1c26.1,0,50.2-9,69.3-24l12.8,20.5
			c1.4,2.2,3.8,3.5,6.4,3.5h72.4c4.2,0,7.5-3.4,7.5-7.5S402.5,336.1,398.3,336.1z M292.2,275.3c-2.2-3.5-6.9-4.6-10.4-2.4
			c-3.5,2.2-4.6,6.9-2.4,10.4l19.4,31c-16.7,13.6-38,21.8-61.2,21.8c-53.5,0-97-43.5-97-97c0-50.9,39.5-92.9,89.5-96.7v96.7
			c0,4.2,3.4,7.5,7.5,7.5h96.7c-1.7,21.8-10.6,41.6-24.4,57L292.2,275.3z"/>
	</g>
</g>
<g>
	<g>
		<path class="st0" d="M173.2,376.3h-64.3c-4.2,0-7.5,3.4-7.5,7.5s3.4,7.5,7.5,7.5h64.3c4.2,0,7.5-3.4,7.5-7.5
			S177.3,376.3,173.2,376.3z"/>
	</g>
</g>
<g>
	<g>
		<path class="st0" d="M269.7,376.3h-64.3c-4.2,0-7.5,3.4-7.5,7.5s3.4,7.5,7.5,7.5h64.3c4.2,0,7.5-3.4,7.5-7.5
			S273.8,376.3,269.7,376.3z"/>
	</g>
</g>
<g>
	<g>
		<path class="st0" d="M213.4,416.5H108.8c-4.2,0-7.5,3.4-7.5,7.5s3.4,7.5,7.5,7.5h104.5c4.2,0,7.5-3.4,7.5-7.5
			S217.5,416.5,213.4,416.5z"/>
	</g>
</g>
<g>
	<g>
		<path class="st0" d="M269.7,416.5h-24.1c-4.2,0-7.5,3.4-7.5,7.5s3.4,7.5,7.5,7.5h24.1c4.2,0,7.5-3.4,7.5-7.5
			C277.2,419.9,273.8,416.5,269.7,416.5z"/>
	</g>
</g>
<g>
	<g>
		<path class="st0" d="M141,456.7h-32.2c-4.2,0-7.5,3.4-7.5,7.5s3.4,7.5,7.5,7.5H141c4.2,0,7.5-3.4,7.5-7.5S145.2,456.7,141,456.7z"
			/>
	</g>
</g>
<g>
	<g>
		<path class="st0" d="M269.7,456.7h-96.5c-4.2,0-7.5,3.4-7.5,7.5s3.4,7.5,7.5,7.5h96.5c4.2,0,7.5-3.4,7.5-7.5
			S273.8,456.7,269.7,456.7z"/>
	</g>
</g>
</svg>
