<?xml version="1.0" encoding="utf-8"?>
<!-- Generator: Adobe Illustrator 21.1.0, SVG Export Plug-In . SVG Version: 6.00 Build 0)  -->
<svg version="1.1" id="Layer_1" xmlns="http://www.w3.org/2000/svg" xmlns:xlink="http://www.w3.org/1999/xlink" x="0px" y="0px"
	 viewBox="0 0 512 512" style="enable-background:new 0 0 512 512;" xml:space="preserve">
<style type="text/css">
	.st0{fill:#454545;}
</style>
<g id="surface1">
	<path class="st0" d="M511.8,412l-29-223.5c-1.4-10.6-11.1-18-21.6-16.7l-10.7,1.4c-5.1,0.7-9.7,3.3-12.8,7.4
		c-3.1,4.1-4.5,9.2-3.9,14.3l0.6,4.3l-14.2,7.2c-7-47.9-30.3-92-66.4-125C314.8,45.7,264.2,26,211.2,26c0,0,0,0,0,0
		c-74.5,0-140.1,38.7-177.7,97.1c-0.5,0.6-0.9,1.2-1.2,1.9C11.9,157.6,0,196,0,237.3c0,46.5,15.1,89.5,40.7,124.5
		c0.3,0.6,0.8,1.2,1.3,1.7c38.6,51.6,100.1,85,169.3,85c0,0,0,0,0,0c8.7,0,17.4-0.5,26-1.6l2,14c2.1,14.3,14.5,24.7,28.6,24.7
		c1.4,0,2.9-0.1,4.3-0.3L287,483c8.6-1.3,14.7-9.3,13.4-17.9c0,0,0,0,0-0.1c0,0,0-0.1,0-0.1c-1.3-9-5.9-13.2-9.2-16.4
		c-2.6-2.5-4.1-3.9-4.7-7.7c-0.4-2.9,0-4.7,1.1-6.7c24.3-9.4,46.4-23.1,65.8-40.8l109.2,23.2l0.2,1.7c1.3,9.7,9.6,16.8,19.1,16.8
		c0.8,0,1.7-0.1,2.5-0.2l10.7-1.4C505.7,432.3,513.2,422.6,511.8,412z M406.1,213.5L374,229.8h-55.7c-0.5-28.3-3.7-55.7-9.5-80.7
		c24.8-3,48.6-7.2,70.9-12.4C393.7,160,402.8,186.1,406.1,213.5z M344.3,244.8l-26.4,13.3c0.2-4.4,0.4-8.9,0.5-13.3H344.3z
		 M343.7,92.4c10.2,9.4,19.4,19.7,27.3,30.8c-20.8,4.7-42.9,8.4-65.9,11.1c-4.5-16.1-10.1-31-16.6-44.5
		c-8.9-18.1-19.1-32.6-30.3-43.2C289.8,54.4,319.2,70,343.7,92.4z M218.8,41.7c20.9,3.7,40.6,22.8,56.2,54.8
		c5.9,12,10.9,25.3,15,39.5c-23.1,2.3-47,3.5-71.2,3.7V41.7z M218.8,154.7c25.5-0.2,50.7-1.6,75.1-4c5.8,24.4,9,51.2,9.5,79.1h-84.6
		V154.7z M218.8,244.8h84.6c-0.1,7.1-0.5,14.2-0.9,21.2l-21.1,10.7l-62.5,8.1V244.8z M164.4,46.7c-11.2,10.6-21.5,25.1-30.3,43.2
		c-6.6,13.5-12.2,28.4-16.6,44.5c-22.9-2.7-45-6.4-65.8-11.1C78.5,85.7,118.2,58,164.4,46.7z M42.8,136.6
		c22.3,5.2,46.1,9.4,70.8,12.4c-5.8,25.1-9,52.4-9.5,80.7h-89C16.4,195.8,26.4,164,42.8,136.6z M15.2,244.8h89
		c0.6,33.2,5,65.3,12.9,94c-23.1,2.7-45.3,6.4-66.5,11.1C29.5,319.8,16.6,283.7,15.2,244.8z M60.7,362.9c19.4-4,39.7-7.3,60.8-9.6
		c2.9,8.9,6.2,17.4,9.9,25.5c2.9,6.3,6,12.4,9.2,18c2.8,4.9,5.8,9.5,8.9,13.8c4.8,6.6,9.8,12.4,15.1,17.3
		C123.2,417.7,87.1,394.5,60.7,362.9z M203.8,432.8c-18.5-3.3-32.9-18.3-42.2-31.1c-2.8-3.8-5.5-8-8.1-12.5
		c-3-5.2-5.9-10.8-8.5-16.6c-3-6.6-5.7-13.6-8.2-20.8c9.4-0.9,19-1.6,28.7-2.1l1.5,11.4c1.3,9.8,9.7,17,19.3,17
		c0.8,0,1.7-0.1,2.5-0.2l12-1.6c0.8,1.7,1.8,3.3,3,4.8V432.8z M178.6,324.1c0.7-0.9,1.8-1.6,3-1.7l10.8-1.4l5.3,40.6l-10.8,1.4
		c-2.4,0.3-4.7-1.4-5-3.9l-4.1-31.7C177.5,326.2,177.9,325,178.6,324.1z M203.8,288.3c-2.9,1.6-5.5,3.8-7.6,6.5
		c-2.5,3.3-4.2,7.1-4.8,11.1l-11.7,1.5c-5.2,0.7-9.8,3.3-12.9,7.4s-4.6,9.2-3.9,14.4l0.7,5.4c-10.6,0.6-21.1,1.4-31.4,2.4
		c-7.9-27.9-12.4-59.5-13-92.4h84.6L203.8,288.3L203.8,288.3z M203.8,229.8h-84.6c0.5-27.8,3.8-54.6,9.5-79.1
		c24.4,2.5,49.5,3.8,75.1,4V229.8z M203.8,139.7c-24.2-0.2-48.1-1.5-71.2-3.7c4.1-14.3,9.1-27.5,15-39.5
		c15.6-32,35.4-51.1,56.2-54.8V139.7z M218.8,432.8v-42.9c2.3,0.4,4.7,0.4,7.1,0.1l3.2-0.4l5.3,37.4
		C229.3,429.9,224,431.9,218.8,432.8z M285.6,467.3c0.1,0.4-0.3,0.8-0.8,0.9l-14.8,2.2c-7.6,1.1-14.7-4.1-15.9-11.7L244,387.6
		l2.2-0.3l17.7-2.3c-0.2,2.1-0.2,4.4,0.2,7c1.3,9,5.9,13.2,9.2,16.4c2.6,2.5,4.1,3.9,4.7,7.7s-0.4,5.6-2.2,8.7
		c-2.2,4-5.3,9.4-4,18.3c1.3,9,5.9,13.2,9.2,16.4C283.5,462,285,463.4,285.6,467.3L285.6,467.3z M292.9,415.7
		c-0.1-0.6-0.1-1.2-0.2-1.8c-1.3-9-5.9-13.2-9.2-16.4c-2.6-2.5-4.1-3.9-4.7-7.7c-0.4-3,0.1-4.7,1.2-6.9l14.8-1.9l40.1,8.5
		C322.1,400.1,308,408.8,292.9,415.7z M496.1,417.1c-0.7,0.9-1.7,1.5-2.9,1.6l-10.7,1.4c-2.4,0.3-4.5-1.4-4.8-3.7l-20.3-156.1
		c-0.5-4.1-4.3-7-8.4-6.5c-4.1,0.5-7,4.3-6.5,8.4l18,138.7l-158.7-33.7l-0.8-6.5c-0.5-4.1-4.3-7-8.4-6.5c-4.1,0.5-7,4.3-6.5,8.4
		l0.6,4.3l-62.8,8.2c-2.5,0.3-4.9-0.3-6.9-1.9c-2-1.5-3.2-3.7-3.6-6.2v0c0-0.1,0-0.1,0-0.2l-7.2-55.3l-0.1-0.7
		c-0.3-2.5,0.3-4.9,1.9-6.9s3.7-3.3,6.2-3.6l62.8-8.2l4.6,35.4c0.5,3.8,3.7,6.5,7.4,6.5c0.3,0,0.6,0,1-0.1c4.1-0.5,7-4.3,6.5-8.4
		l-4.9-37.6L436.4,215l1.6,12.7c0.5,4.1,4.3,7,8.4,6.5c4.1-0.5,7-4.3,6.5-8.4l-4.3-32.8c-0.1-1.1,0.2-2.3,0.9-3.2
		c0.7-0.9,1.7-1.5,2.9-1.6l10.7-1.4c2.4-0.3,4.5,1.4,4.8,3.7l29,223.5C497.1,415.1,496.8,416.2,496.1,417.1z"/>
</g>
</svg>
