<?xml version="1.0" encoding="utf-8"?>
<!-- Generator: Adobe Illustrator 21.1.0, SVG Export Plug-In . SVG Version: 6.00 Build 0)  -->
<svg version="1.1" id="Layer_1" xmlns="http://www.w3.org/2000/svg" xmlns:xlink="http://www.w3.org/1999/xlink" x="0px" y="0px"
	 viewBox="0 0 512 512" style="enable-background:new 0 0 512 512;" xml:space="preserve">
<style type="text/css">
	.st0{fill:#454545;}
</style>
<g>
	<g>
		<path class="st0" d="M481.1,188c-3.5-2.1-7.7-2.2-11.3-0.3l-73.9,39.8v-34.1c0-6.3-5.1-11.4-11.4-11.4h-18.6
			c23.2-18.8,38-47.5,38-79.6C403.9,46,358,0,301.5,0c-48.2,0-88.8,33.5-99.6,78.4c-14.2-17.1-35.6-28-59.5-28
			c-42.6,0-77.3,34.7-77.3,77.3c0,21.2,8.6,40.4,22.5,54.4H77.1c-6.3,0-11.4,5.1-11.4,11.4v51.9H36.8c-6.3,0-11.4,5.1-11.4,11.4
			v44.9c0,6.3,5.1,11.4,11.4,11.4h28.9V365c0,6.3,5.1,11.4,11.4,11.4H212L150,495.3c-2.9,5.6-0.7,12.5,4.9,15.4
			c1.7,0.9,3.5,1.3,5.3,1.3c4.1,0,8.1-2.2,10.1-6.1l60.5-116.1l60.5,116.1c2,3.9,6,6.1,10.1,6.1c1.8,0,3.6-0.4,5.3-1.3
			c5.6-2.9,7.8-9.8,4.9-15.4l-61.9-118.8h134.8c6.3,0,11.4-5.1,11.4-11.4v-34.1l73.9,39.8c1.7,0.9,3.6,1.4,5.4,1.4
			c2,0,4.1-0.5,5.9-1.6c3.5-2.1,5.6-5.8,5.6-9.8V197.8C486.7,193.8,484.5,190.1,481.1,188z M65.7,290.3H48.2v-22.1h17.5V290.3z
			 M301.5,22.9c43.9,0,79.6,35.7,79.6,79.6S345.4,182,301.5,182c-43.9,0-79.6-35.7-79.6-79.6C221.9,58.6,257.6,22.9,301.5,22.9z
			 M214.2,156.1c6.1,9.9,13.8,18.7,22.8,26h-39.9C204.5,174.7,210.3,165.9,214.2,156.1z M142.4,73.2c30,0,54.4,24.4,54.4,54.4
			S172.4,182,142.4,182c-30,0-54.4-24.4-54.4-54.4C88,97.7,112.4,73.2,142.4,73.2z M373,246.7v65.1v41.8H231c0,0,0,0-0.1,0h-0.3
			c0,0,0,0,0,0h-142v-51.9v-44.9v-51.9H373V246.7z M463.8,341.5L395.9,305v-51.5l67.9-36.5V341.5z"/>
	</g>
</g>
<g>
	<g>
		<path class="st0" d="M142.4,92.9c-19.1,0-34.7,15.6-34.7,34.7c0,19.1,15.6,34.7,34.7,34.7c19.1,0,34.7-15.6,34.7-34.7
			C177.1,108.5,161.5,92.9,142.4,92.9z M142.4,141.8c-7.8,0-14.1-6.3-14.1-14.1s6.3-14.1,14.1-14.1s14.1,6.3,14.1,14.1
			S150.2,141.8,142.4,141.8z"/>
	</g>
</g>
<g>
	<g>
		<path class="st0" d="M301.5,52.6c-27.5,0-49.9,22.4-49.9,49.9c0,27.5,22.4,49.9,49.9,49.9s49.9-22.4,49.9-49.9
			C351.3,75,329,52.6,301.5,52.6z M301.5,129.5c-14.9,0-27-12.1-27-27s12.1-27,27-27s27,12.1,27,27S316.4,129.5,301.5,129.5z"/>
	</g>
</g>
<g>
	<g>
		<path class="st0" d="M264.6,238.1H140.3c-6,0-10.9,4.9-10.9,10.9v60.5c0,6,4.9,10.9,10.9,10.9h124.3c6,0,10.9-4.9,10.9-10.9V249
			C275.5,243,270.6,238.1,264.6,238.1z M253.7,298.7H151.2v-38.8h102.5L253.7,298.7L253.7,298.7z"/>
	</g>
</g>
<g>
	<g>
		<circle class="st0" cx="324.5" cy="260.4" r="11.4"/>
	</g>
</g>
<g>
	<g>
		<circle class="st0" cx="324.5" cy="298.1" r="11.4"/>
	</g>
</g>
</svg>
