<?xml version="1.0" encoding="utf-8"?>
<!-- Generator: Adobe Illustrator 21.1.0, SVG Export Plug-In . SVG Version: 6.00 Build 0)  -->
<svg version="1.1" id="Capa_1" xmlns="http://www.w3.org/2000/svg" xmlns:xlink="http://www.w3.org/1999/xlink" x="0px" y="0px"
	 viewBox="0 0 55 55" style="enable-background:new 0 0 55 55;" xml:space="preserve">
<style type="text/css">
	.st0{fill:#454545;}
</style>
<g>
	<circle class="st0" cx="45" cy="26" r="1"/>
	<circle class="st0" cx="9" cy="26" r="1"/>
	<circle class="st0" cx="12" cy="29" r="1"/>
	<circle class="st0" cx="18" cy="29" r="1"/>
	<circle class="st0" cx="15" cy="32" r="1"/>
	<circle class="st0" cx="21" cy="32" r="1"/>
	<circle class="st0" cx="24" cy="35" r="1"/>
	<circle class="st0" cx="30" cy="35" r="1"/>
	<circle class="st0" cx="33" cy="32" r="1"/>
	<circle class="st0" cx="27" cy="38" r="1"/>
	<circle class="st0" cx="36" cy="29" r="1"/>
	<circle class="st0" cx="42" cy="29" r="1"/>
	<circle class="st0" cx="39" cy="32" r="1"/>
	<path class="st0" d="M45.6,32.8l9.4-5.4l-9.7-5.5l9.7-5.5L27.5,0.8L0,16.4l9.7,5.5L0,27.4l9.7,5.5L0,38.4l27.5,15.7L55,38.4
		l-9.7-5.5l0.1,0C45.4,32.9,45.5,32.8,45.6,32.8z M27.5,3.1l23.4,13.3l-7.6,4.4l0,0l-15.8,9L4,16.4L27.5,3.1z M11.1,23.4
		c0.2,0.3,0.5,0.6,0.9,0.6c0.3,0,0.5-0.1,0.7-0.3L15,25c-0.5,0-1,0.5-1,1c0,0.6,0.4,1,1,1s1-0.4,1-1c0-0.2-0.1-0.3-0.1-0.5l10.3,5.9
		C26.1,31.6,26,31.8,26,32c0,0.6,0.4,1,1,1s1-0.4,1-1c0-0.1,0-0.1,0-0.1L38,26.1c0.1,0.5,0.5,0.9,1,0.9c0.6,0,1-0.4,1-1
		c0-0.3-0.2-0.6-0.4-0.8l2.2-1.3c0.1,0,0.1,0,0.2,0c0.4,0,0.8-0.3,0.9-0.7l0.3-0.2l7.6,4.3l-2,1.1C48.8,28.2,48.4,28,48,28
		c-0.6,0-1,0.4-1,1c0,0.2,0.1,0.4,0.2,0.6l-3.9,2.3l0,0l-6.4,3.6C37,35.3,37,35.1,37,35c0-0.6-0.4-1-1-1s-1,0.4-1,1c0,0.5,0.4,1,1,1
		l-2.3,1.3C33.5,37.1,33.3,37,33,37c-0.6,0-1,0.4-1,1c0,0.1,0,0.2,0,0.2l-4.6,2.6L22,37.7C21.8,37.3,21.5,37,21,37
		c-0.1,0-0.1,0-0.2,0l-2.2-1.3c0.2-0.2,0.4-0.5,0.4-0.8c0-0.6-0.4-1-1-1c-0.5,0-0.9,0.4-1,0.9L7,29.1c0,0,0-0.1,0-0.1
		c0-0.6-0.4-1-1-1c-0.2,0-0.4,0.1-0.6,0.2L4,27.4L11.1,23.4z M50.9,38.4L27.5,51.8L4,38.4l7.6-4.3l15.8,9l15.8-9L50.9,38.4z"/>
</g>
</svg>
